<svg width="234" height="28" viewBox="0 0 234 28" fill="none" xmlns="http://www.w3.org/2000/svg">
<path fill-rule="evenodd" clip-rule="evenodd" d="M53.4395 3.66016C55.2282 3.66016 57.0839 4.20448 58.6077 5.29256L57.4478 6.79336C56.2058 5.936 55.1624 5.45776 53.5885 5.45776C50.8553 5.45776 48.7178 7.15624 48.7178 9.63032C48.7178 12.1038 50.8553 13.8023 53.5885 13.8023C55.2451 13.8023 56.338 13.291 57.6633 12.4006L58.8231 13.9014C57.2661 15.0063 55.3115 15.6005 53.4395 15.6005C49.6792 15.6005 46.1343 13.3902 46.1343 9.61352C46.1343 5.83688 49.6792 3.66016 53.4395 3.66016" fill="#007859"/>
<path fill-rule="evenodd" clip-rule="evenodd" d="M67.5841 9.58055C69.3402 9.58055 70.4664 8.85479 70.4664 7.60151C70.4664 6.38127 69.3897 5.70479 67.5678 5.70479H63.9729V9.58055H67.5841ZM61.4883 3.85791H67.7664C70.6818 3.85791 73.0505 5.02887 73.0505 7.56847C73.0505 9.54751 71.5925 10.5863 69.6215 11.0315L73.415 15.4023H70.5159L67.0705 11.3782H63.9728V15.4023H61.4883V3.85791Z" fill="#007859"/>
<mask id="mask0_789_11814" style="mask-type:alpha" maskUnits="userSpaceOnUse" x="75" y="0" width="12" height="16">
<path fill-rule="evenodd" clip-rule="evenodd" d="M75.9976 0.560059H86.7318V15.4026H75.9976V0.560059Z" fill="white"/>
</mask>
<g mask="url(#mask0_789_11814)">
<path fill-rule="evenodd" clip-rule="evenodd" d="M83.9986 0.55957L82.0771 2.58789H79.9564L81.4144 0.55957H83.9986ZM75.9976 12.0709V3.85797H86.5V5.70485H78.4821V8.49197H85.8374V10.2896H78.4821V12.0709C78.4821 13.0767 78.9625 13.5549 79.9401 13.5549H86.7318V15.4024H79.3439C77.2232 15.4024 75.9976 14.1653 75.9976 12.0709V12.0709Z" fill="#007859"/>
</g>
<path fill-rule="evenodd" clip-rule="evenodd" d="M95.2946 13.5554C98.1105 13.5554 99.9988 11.9885 99.9988 9.64712C99.9988 7.2884 98.1105 5.70528 95.2946 5.70528H92.3792V13.5554H95.2946ZM89.894 3.8584H95.1292C99.6017 3.8584 102.583 6.16728 102.583 9.63032C102.583 13.0934 99.6017 15.4028 95.1292 15.4028H89.894V3.8584Z" fill="#007859"/>
<mask id="mask1_789_11814" style="mask-type:alpha" maskUnits="userSpaceOnUse" x="0" y="0" width="234" height="28">
<path fill-rule="evenodd" clip-rule="evenodd" d="M0 27.6545H233.579V0.560059H0V27.6545Z" fill="white"/>
</mask>
<g mask="url(#mask1_789_11814)">
<path fill-rule="evenodd" clip-rule="evenodd" d="M105.414 15.4023H107.898V3.85791H105.414V15.4023Z" fill="#007859"/>
<path fill-rule="evenodd" clip-rule="evenodd" d="M110.565 5.70528V3.8584H121.962V5.70528H117.506V15.4028H115.021V5.70528H110.565Z" fill="#007859"/>
<path fill-rule="evenodd" clip-rule="evenodd" d="M136.703 10.8176L134.417 6.23287L132.13 10.8176H136.703ZM137.614 12.6152H131.22L129.828 15.4029H127.293L133.307 3.85791H135.841L141.854 15.4029H139.005L137.614 12.6152Z" fill="#007859"/>
<path fill-rule="evenodd" clip-rule="evenodd" d="M150.086 3.66016C151.875 3.66016 153.73 4.20448 155.254 5.29256L154.095 6.79336C152.852 5.936 151.809 5.45776 150.236 5.45776C147.502 5.45776 145.365 7.1232 145.365 9.59728C145.365 12.0378 147.27 13.8023 150.152 13.8023C151.428 13.8023 152.604 13.4562 153.432 12.9119V10.7022H149.937V8.9376H155.917V13.7861C154.526 14.7756 152.555 15.6005 150.053 15.6005C145.68 15.6005 142.781 13.0273 142.781 9.61352C142.781 5.83688 146.326 3.66016 150.086 3.66016" fill="#007859"/>
<path fill-rule="evenodd" clip-rule="evenodd" d="M165.341 9.58055C167.097 9.58055 168.223 8.85479 168.223 7.60151C168.223 6.38127 167.147 5.70479 165.325 5.70479H161.73V9.58055H165.341ZM159.245 3.85791H165.523C168.439 3.85791 170.807 5.02887 170.807 7.56847C170.807 9.54751 169.35 10.5863 167.378 11.0315L171.172 15.4023H168.273L164.827 11.3782H161.73V15.4023H159.245V3.85791Z" fill="#007859"/>
<path fill-rule="evenodd" clip-rule="evenodd" d="M174.168 15.4023H176.654V3.85791H174.168V15.4023Z" fill="#007859"/>
<path fill-rule="evenodd" clip-rule="evenodd" d="M186.956 3.66016C188.745 3.66016 190.601 4.20448 192.124 5.29256L190.965 6.79336C189.722 5.936 188.679 5.45776 187.106 5.45776C184.372 5.45776 182.235 7.15624 182.235 9.63032C182.235 12.1038 184.372 13.8023 187.106 13.8023C188.762 13.8023 189.855 13.291 191.18 12.4006L192.34 13.9014C190.783 15.0063 188.828 15.6005 186.956 15.6005C183.196 15.6005 179.651 13.3902 179.651 9.61352C179.651 5.83688 183.196 3.66016 186.956 3.66016" fill="#007859"/>
<path fill-rule="evenodd" clip-rule="evenodd" d="M196.016 9.63032C196.016 11.9554 197.954 13.8029 200.77 13.8029C203.586 13.8029 205.524 11.9554 205.524 9.63032C205.524 7.3052 203.586 5.45776 200.77 5.45776C197.954 5.45776 196.016 7.3052 196.016 9.63032M193.431 9.63032C193.431 6.36496 196.479 3.66016 200.77 3.66016C205.06 3.66016 208.108 6.36496 208.108 9.63032C208.108 12.8957 205.06 15.6005 200.77 15.6005C196.479 15.6005 193.431 12.8957 193.431 9.63032" fill="#007859"/>
<path fill-rule="evenodd" clip-rule="evenodd" d="M210.608 3.85791H213.093V13.5549H220.464V15.4023H210.608V3.85791Z" fill="#007859"/>
<path fill-rule="evenodd" clip-rule="evenodd" d="M222.219 12.0709V3.85791H232.721V5.70479H224.703V8.49191H232.059V10.2895H224.703V12.0709C224.703 13.0766 225.184 13.5549 226.161 13.5549H232.953V15.4023H225.565C223.445 15.4023 222.219 14.1653 222.219 12.0709" fill="#007859"/>
<path fill-rule="evenodd" clip-rule="evenodd" d="M50.5451 20.9849C51.5317 20.9849 52.5543 21.2878 53.3947 21.8943L52.7551 22.7298C52.07 22.2527 51.4946 21.9861 50.6272 21.9861C49.1203 21.9861 47.9424 22.9325 47.9424 24.3101C47.9424 25.6883 49.1203 26.6347 50.6272 26.6347C51.5407 26.6347 52.1437 26.3497 52.8744 25.8535L53.5134 26.6901C52.6545 27.3056 51.5773 27.636 50.5451 27.636C48.4717 27.636 46.5176 26.4051 46.5176 24.3012C46.5176 22.1973 48.4717 20.9849 50.5451 20.9849" fill="#5E6A71"/>
<path fill-rule="evenodd" clip-rule="evenodd" d="M55.396 24.3106C55.396 25.6059 56.4642 26.6346 58.0173 26.6346C59.5698 26.6346 60.6379 25.6059 60.6379 24.3106C60.6379 23.0154 59.5698 21.9866 58.0173 21.9866C56.4642 21.9866 55.396 23.0154 55.396 24.3106M53.9712 24.3106C53.9712 22.4918 55.6519 20.9854 58.0173 20.9854C60.3826 20.9854 62.0633 22.4918 62.0633 24.3106C62.0633 26.1295 60.3826 27.6359 58.0173 27.6359C55.6519 27.6359 53.9712 26.1295 53.9712 24.3106" fill="#5E6A71"/>
<path fill-rule="evenodd" clip-rule="evenodd" d="M66.567 24.2833C67.535 24.2833 68.1561 23.8784 68.1561 23.1807C68.1561 22.5003 67.5626 22.1245 66.558 22.1245H64.5757V24.2833H66.567ZM63.2061 21.0952H66.6671C68.2747 21.0952 69.5809 21.7476 69.5809 23.1622C69.5809 24.2648 68.7771 24.8433 67.6903 25.0914L69.7817 27.5263H68.1836L66.2841 25.2846H64.5757V27.5263H63.2061V21.0952Z" fill="#5E6A71"/>
<path fill-rule="evenodd" clip-rule="evenodd" d="M74.5595 24.5589C75.5365 24.5589 76.1671 24.0991 76.1671 23.3179C76.1671 22.5563 75.5641 22.124 74.5505 22.124H72.4771V24.5589H74.5595ZM71.1074 21.0947H74.605C76.2487 21.0947 77.5914 21.802 77.5914 23.3179C77.5914 24.8249 76.2672 25.5876 74.605 25.5876H72.4771V27.5263H71.1074V21.0947Z" fill="#5E6A71"/>
<path fill-rule="evenodd" clip-rule="evenodd" d="M79.4741 24.3106C79.4741 25.6059 80.5423 26.6346 82.0954 26.6346C83.6479 26.6346 84.7161 25.6059 84.7161 24.3106C84.7161 23.0154 83.6479 21.9866 82.0954 21.9866C80.5423 21.9866 79.4741 23.0154 79.4741 24.3106M78.0493 24.3106C78.0493 22.4918 79.7301 20.9854 82.0954 20.9854C84.4607 20.9854 86.1409 22.4918 86.1409 24.3106C86.1409 26.1295 84.4607 27.6359 82.0954 27.6359C79.7301 27.6359 78.0493 26.1295 78.0493 24.3106" fill="#5E6A71"/>
<path fill-rule="evenodd" clip-rule="evenodd" d="M90.7364 24.2833C91.7045 24.2833 92.3255 23.8784 92.3255 23.1807C92.3255 22.5003 91.7321 22.1245 90.7274 22.1245H88.7452V24.2833H90.7364ZM87.3755 21.0952H90.8371C92.4442 21.0952 93.7503 21.7476 93.7503 23.1622C93.7503 24.2648 92.9465 24.8433 91.8597 25.0914L93.9511 27.5263H92.3531L90.4535 25.2846H88.7452V27.5263H87.3755V21.0952Z" fill="#5E6A71"/>
<path fill-rule="evenodd" clip-rule="evenodd" d="M99.5052 24.9716L98.2452 22.4174L96.9847 24.9716H99.5052ZM100.008 25.9729H96.4824L95.7157 27.5263H94.3179L97.6332 21.0947H99.0305L102.346 27.5263H100.775L100.008 25.9729Z" fill="#5E6A71"/>
<path fill-rule="evenodd" clip-rule="evenodd" d="M101.799 22.124V21.0947H108.082V22.124H105.626V27.5258H104.256V22.124H101.799Z" fill="#5E6A71"/>
<path fill-rule="evenodd" clip-rule="evenodd" d="M109.179 25.6699V21.0947H114.97V22.124H110.549V23.6758H114.605V24.6782H110.549V25.6699C110.549 26.2305 110.814 26.497 111.353 26.497H115.097V27.5258H111.024C109.855 27.5258 109.179 26.837 109.179 25.6699" fill="#5E6A71"/>
<path fill-rule="evenodd" clip-rule="evenodd" d="M121.747 22.6201V22.6016C121.747 22.1693 121.446 21.8758 121.017 21.8758C120.56 21.8758 120.259 22.1973 120.259 22.6475V22.666C120.259 22.9874 120.386 23.2265 120.742 23.6213C121.4 23.3822 121.747 23.0793 121.747 22.6201V22.6201ZM121.783 26.1201L120.359 24.6596C119.766 24.9172 119.509 25.312 119.509 25.7253V25.7437C119.509 26.2858 119.957 26.6806 120.578 26.6806C121.017 26.6806 121.418 26.4695 121.783 26.1201V26.1201ZM122.423 26.782C121.875 27.2966 121.236 27.6181 120.459 27.6181C119.272 27.6181 118.377 26.8923 118.377 25.7807V25.7617C118.377 24.9357 118.861 24.3381 119.738 23.9613C119.373 23.4931 119.208 23.0882 119.208 22.6201V22.6016C119.208 21.7381 119.902 20.9849 121.044 20.9849C122.057 20.9849 122.743 21.6742 122.743 22.5377V22.5562C122.743 23.4013 122.186 23.9064 121.336 24.2278L122.432 25.3489C122.678 24.981 122.907 24.5588 123.117 24.108L123.967 24.5588C123.711 25.0734 123.428 25.5785 123.099 26.0282L124.103 27.0575L123.272 27.6545L122.423 26.782Z" fill="#5E6A71"/>
<path fill-rule="evenodd" clip-rule="evenodd" d="M127.712 27.5258H129.083V21.0947H127.712V27.5258Z" fill="#5E6A71"/>
<path fill-rule="evenodd" clip-rule="evenodd" d="M132.371 22.9416V27.5263H131V21.0947H132.371L136.289 25.6699V21.0947H137.658V27.5263H136.289L132.371 22.9416Z" fill="#5E6A71"/>
<path fill-rule="evenodd" clip-rule="evenodd" d="M146.373 21.0952L143.195 27.5263H141.797L138.619 21.0952H140.19L142.583 26.1755L144.976 21.0952H146.373Z" fill="#5E6A71"/>
<path fill-rule="evenodd" clip-rule="evenodd" d="M147.104 25.6699V21.0947H152.895V22.124H148.474V23.6758H152.529V24.6782H148.474V25.6699C148.474 26.2305 148.739 26.497 149.278 26.497H153.022V27.5258H148.949C147.78 27.5258 147.104 26.837 147.104 25.6699" fill="#5E6A71"/>
<path fill-rule="evenodd" clip-rule="evenodd" d="M154.029 26.6162L154.668 25.6889C155.499 26.3043 156.632 26.5888 157.609 26.5888C158.623 26.5888 159.454 26.2858 159.454 25.8081C159.454 25.312 158.532 25.1188 157.472 24.8892C156.01 24.5767 154.275 24.2093 154.275 22.923C154.275 21.7285 155.755 20.9849 157.444 20.9849C158.604 20.9849 159.819 21.3153 160.696 21.9128L160.057 22.8407C159.335 22.2891 158.367 22.0136 157.472 22.0136C156.558 22.0136 155.681 22.2986 155.681 22.7578C155.681 23.1901 156.522 23.3643 157.526 23.5665C159.015 23.87 160.86 24.2463 160.86 25.6429C160.86 26.9102 159.344 27.636 157.627 27.636C156.303 27.636 154.969 27.2412 154.029 26.6162" fill="#5E6A71"/>
<path fill-rule="evenodd" clip-rule="evenodd" d="M161.455 22.124V21.0947H167.738V22.124H165.282V27.5258H163.912V22.124H161.455Z" fill="#5E6A71"/>
<path fill-rule="evenodd" clip-rule="evenodd" d="M174.89 21.0952H176.351V27.5263H174.982V22.7304L172.442 26.3228L169.977 22.8407V27.5263H168.789V21.0952H170.25L172.57 24.3662L174.89 21.0952Z" fill="#5E6A71"/>
<path fill-rule="evenodd" clip-rule="evenodd" d="M177.951 25.6699V21.0947H183.742V22.124H179.321V23.6758H183.376V24.6782H179.321V25.6699C179.321 26.2305 179.586 26.497 180.125 26.497H183.869V27.5258H179.796C178.627 27.5258 177.951 26.837 177.951 25.6699" fill="#5E6A71"/>
<path fill-rule="evenodd" clip-rule="evenodd" d="M186.748 22.9416V27.5263H185.377V21.0947H186.748L190.665 25.6699V21.0947H192.035V27.5263H190.665L186.748 22.9416Z" fill="#5E6A71"/>
<path fill-rule="evenodd" clip-rule="evenodd" d="M193.087 22.124V21.0947H199.371V22.124H196.914V27.5258H195.544V22.124H193.087Z" fill="#5E6A71"/>
<path fill-rule="evenodd" clip-rule="evenodd" d="M208.185 25.624C208.185 25.0819 207.693 24.779 206.888 24.779H204.35V26.497H206.88C207.693 26.497 208.185 26.175 208.185 25.624V25.624ZM204.35 22.124V23.7777H206.614C207.419 23.7777 207.93 23.4742 207.93 22.9416C207.93 22.427 207.436 22.124 206.605 22.124H204.35ZM209.638 25.7254C209.638 26.9008 208.469 27.5258 206.989 27.5258H202.979V21.0947H206.716C208.176 21.0947 209.346 21.6922 209.346 22.8498C209.346 23.5022 208.962 23.9608 208.359 24.2279C209.126 24.4575 209.638 24.9442 209.638 25.7254V25.7254Z" fill="#5E6A71"/>
<path fill-rule="evenodd" clip-rule="evenodd" d="M215.009 24.9716L213.749 22.4174L212.489 24.9716H215.009ZM215.511 25.9729H211.986L211.219 27.5263H209.822L213.137 21.0947H214.534L217.849 27.5263H216.279L215.511 25.9729Z" fill="#5E6A71"/>
<path fill-rule="evenodd" clip-rule="evenodd" d="M219.814 22.9416V27.5263H218.444V21.0947H219.814L223.732 25.6699V21.0947H225.102V27.5263H223.732L219.814 22.9416Z" fill="#5E6A71"/>
<path fill-rule="evenodd" clip-rule="evenodd" d="M229.314 24.5309L228.209 25.4963V27.5263H226.839V21.0947H228.209V24.1915L231.634 21.0947H233.232L230.263 23.6954L233.579 27.5263H231.898L229.314 24.5309Z" fill="#5E6A71"/>
<path fill-rule="evenodd" clip-rule="evenodd" d="M26.1436 18.237L30.3938 15.9707L33.5534 22.507H28.8531C28.8531 22.5104 27.9486 22.5104 27.5869 21.6989C27.25 20.8013 26.1514 18.2381 26.1436 18.237" fill="#5E6A71"/>
<path fill-rule="evenodd" clip-rule="evenodd" d="M0.378418 27.6396H34.5621V24.5938H0.378418V27.6396Z" fill="#5E6A71"/>
<path fill-rule="evenodd" clip-rule="evenodd" d="M37.0991 5.31685C37.0918 5.31573 31.7205 8.38845 30.4621 8.85549C29.3056 9.31077 28.8714 8.70933 28.7325 8.49877C28.422 8.02613 27.9123 6.46765 27.8403 6.23301C27.8713 6.23973 28.1683 6.29797 28.8556 6.12437C29.6735 5.91773 37.0918 1.78829 37.0991 1.79053V5.31685Z" fill="#007859"/>
<path fill-rule="evenodd" clip-rule="evenodd" d="M28.4949 11.6443L24.9652 3.85637H19.8301L12.6166 17.2549C12.6228 17.2566 16.166 17.1457 18.4368 15.4422C19.0111 15.1062 20.6295 10.8737 22.1122 8.02725L24.4196 13.7784C20.9321 15.5559 17.6201 17.1155 15.8364 17.6172C11.1305 18.9668 5.39865 19.776 3.3399 17.9611C1.40321 16.2497 5.87508 9.08341 14.3328 7.48909C15.7042 7.18445 16.5046 7.26285 16.5046 7.27125C16.5046 7.26285 15.9247 4.82069 15.4736 4.30605C14.843 3.53773 14.2248 3.37981 13.304 3.49629C11.4731 3.60493 3.68471 5.67189 0.611772 12.132C-1.10217 15.8023 1.17708 19.5095 2.65196 20.5824C3.33708 21.0814 7.76002 25.0288 17.9868 21.0377C28.0646 17.1457 37.0916 11.016 37.0989 11.016V6.91509C37.095 6.91005 33.1153 9.18085 28.4949 11.6443" fill="#5E6A71"/>
</g>
</svg>
